<?xml version="1.0" standalone="no"?>
<!DOCTYPE svg PUBLIC "-//W3C//DTD SVG 20010904//EN"
 "http://www.w3.org/TR/2001/REC-SVG-20010904/DTD/svg10.dtd">
<svg version="1.0" xmlns="http://www.w3.org/2000/svg"
 width="1024.000000pt" height="1024.000000pt" viewBox="0 0 1024.000000 1024.000000"
 preserveAspectRatio="xMidYMid meet">
<metadata>
Created by potrace 1.14, written by Peter Selinger 2001-2017
</metadata>
<g transform="translate(0.000000,1024.000000) scale(0.100000,-0.100000)"
fill="#000000" stroke="none">
<path d="M4509 9661 c-58 -10 -146 -28 -195 -40 -50 -11 -126 -28 -171 -36
-136 -26 -940 -221 -1218 -295 -82 -22 -240 -63 -350 -91 -377 -95 -1201 -347
-1450 -444 -60 -23 -121 -46 -135 -50 -76 -22 -682 -265 -743 -298 -87 -46
-196 -166 -225 -248 l-22 -64 0 -2826 0 -2827 33 -48 c54 -82 140 -123 266
-127 67 -2 70 -7 50 -65 -15 -45 -2 -79 86 -213 63 -96 72 -115 57 -121 -9 -3
-38 -14 -64 -23 -143 -50 -188 -135 -188 -351 0 -123 0 -123 30 -158 55 -62
216 -109 550 -160 585 -90 1127 -101 1703 -36 267 31 558 86 650 125 50 21 58
19 20 -6 -39 -25 -43 -56 -10 -86 86 -79 360 -133 927 -183 436 -38 1279 -53
1490 -25 63 8 284 26 490 40 206 14 479 34 605 45 127 11 347 29 490 40 143
12 275 25 294 30 31 8 39 5 97 -36 108 -77 153 -89 339 -89 144 0 166 3 218
24 32 12 77 37 100 55 38 29 52 34 128 39 166 12 628 77 824 117 411 83 660
166 763 256 l37 32 -20 22 c-38 42 -95 64 -167 65 l-68 0 0 49 c0 44 4 53 40
86 36 34 40 41 40 87 0 37 -7 60 -29 95 -16 25 -26 50 -21 54 4 5 18 41 30 79
33 102 57 142 91 149 18 3 34 16 44 35 48 94 -21 162 -153 149 -112 -11 -214
-104 -235 -215 -4 -17 0 -57 8 -88 8 -31 15 -72 15 -90 0 -41 -14 -44 -95 -17
-47 16 -50 19 -47 47 9 82 5 411 -6 490 -29 209 -141 627 -250 940 -85 241
-199 533 -228 582 l-24 42 22 6 c38 12 161 111 239 193 195 203 301 404 362
683 27 118 52 307 44 316 -3 3 8 28 25 56 78 132 117 261 125 410 9 171 -26
321 -106 457 -53 88 -182 217 -259 258 -45 24 -71 47 -103 93 -48 66 -219 203
-348 278 -167 98 -390 185 -591 231 -152 35 -248 47 -446 56 l-152 7 -6 64
c-13 124 -65 222 -166 307 -101 86 -194 116 -360 117 -170 0 -291 -47 -414
-162 -83 -78 -123 -146 -153 -259 -21 -84 -21 -246 1 -315 9 -27 16 -53 16
-56 0 -3 -47 -45 -104 -93 -118 -99 -275 -258 -357 -361 -102 -129 -151 -208
-289 -470 -29 -55 -92 -158 -140 -230 -101 -150 -171 -285 -196 -376 -11 -40
-18 -103 -18 -169 -1 -125 23 -217 85 -321 21 -36 39 -77 39 -91 0 -15 7 -58
15 -96 59 -283 292 -545 572 -645 50 -18 91 -36 92 -42 2 -5 -31 -22 -71 -36
-82 -29 -190 -86 -258 -136 -191 -142 -373 -413 -402 -596 l-12 -77 -65 -39
c-91 -53 -197 -108 -321 -165 -58 -27 -220 -105 -360 -173 -140 -68 -268 -130
-285 -137 -16 -8 -172 -84 -345 -169 -173 -86 -407 -200 -520 -255 -113 -54
-235 -117 -273 -140 -37 -23 -70 -42 -73 -42 -21 0 -146 -96 -169 -130 l-28
-40 -28 37 c-57 78 -149 132 -290 172 -183 51 -320 70 -584 80 -108 4 -199 12
-211 19 -45 24 -81 162 -119 455 -21 164 -20 246 3 254 27 9 480 208 672 295
96 44 238 107 315 140 484 209 597 257 750 320 94 38 199 81 235 94 72 28 102
40 528 208 161 64 295 116 298 116 2 0 23 9 47 20 23 10 90 39 149 64 85 35
198 97 198 109 0 1 -5 18 -12 37 -8 26 -13 710 -17 2625 l-6 2591 -26 49 c-27
54 -111 125 -204 173 -66 34 -195 39 -346 13z m-80 -75 c-10 -11 -239 -68
-399 -101 -96 -20 -248 -56 -338 -81 -273 -76 -502 -131 -490 -118 3 3 91 27
194 54 104 27 202 54 219 60 38 14 339 85 473 111 57 11 115 25 130 30 51 20
222 56 211 45z m576 -113 c16 -24 16 -24 -4 -14 -11 6 -23 16 -26 21 -3 6 -21
10 -38 11 -30 1 -30 1 -7 8 35 10 56 3 75 -26z m-402 -546 c15 -23 14 -23 -17
-20 -22 2 -25 0 -11 -5 21 -7 32 -32 15 -32 -5 0 -10 5 -10 11 0 5 -5 7 -11 4
-6 -4 -8 -13 -5 -21 3 -8 0 -11 -10 -7 -7 3 -14 1 -14 -4 0 -11 -47 -36 -70
-37 -8 -1 -14 -7 -12 -14 2 -10 -6 -12 -30 -7 -22 4 -28 3 -20 -3 11 -7 7 -11
-13 -16 -14 -4 -30 -4 -36 0 -5 3 -17 0 -25 -7 -19 -15 -32 -3 -39 36 l-6 30
143 56 c79 32 146 57 149 58 4 1 14 -9 22 -22z m-3283 -167 c-19 -11 -39 -19
-45 -19 -5 0 6 8 25 19 19 11 40 19 45 19 6 0 -6 -8 -25 -19z m2880 -5 c0 -10
-6 -12 -17 -8 -16 6 -16 5 -4 -10 15 -18 12 -27 -11 -31 -7 -2 -20 -6 -30 -10
-32 -14 -73 -3 -76 21 -3 17 3 24 25 28 15 4 35 9 43 12 8 3 21 7 28 9 8 1 16
5 19 8 9 8 23 -4 23 -19z m-2950 -25 c-8 -5 -19 -10 -25 -10 -5 0 -3 5 5 10 8
5 20 10 25 10 6 0 3 -5 -5 -10z m-80 -25 c0 -6 -94 -49 -132 -60 -43 -14 -10
6 59 35 80 34 73 31 73 25z m2752 -43 c4 -15 -6 -22 -57 -39 -42 -14 -68 -17
-79 -11 -18 10 -22 -2 -5 -19 13 -13 4 -33 -15 -33 -8 0 -18 6 -24 13 -9 10
-7 17 7 29 10 9 20 20 22 25 4 9 111 50 135 52 7 1 14 -7 16 -17z m-2962 -46
c0 -2 -13 -9 -30 -15 -35 -12 -41 -5 -7 9 25 10 37 12 37 6z m2750 -25 c0 -12
-20 -25 -27 -18 -7 7 6 27 18 27 5 0 9 -4 9 -9z m-3090 -95 c0 -2 -35 -19 -77
-36 -43 -18 -132 -59 -198 -92 -206 -103 -284 -184 -306 -321 l-8 -52 4 57 c5
74 52 165 114 220 51 45 122 82 286 152 61 26 124 53 140 61 31 14 45 18 45
11z m3026 -6 c8 0 14 -4 14 -8 0 -10 -109 -36 -117 -28 -9 8 61 46 75 41 8 -3
20 -5 28 -5z m-247 -34 c13 -14 33 -27 45 -29 18 -3 15 -6 -16 -20 -47 -21
-87 -22 -116 -1 -32 22 -27 40 16 57 48 21 45 21 71 -7z m-234 -96 c16 -16 24
-30 18 -30 -6 0 -18 -3 -26 -6 -10 -4 -14 2 -14 22 0 14 -7 30 -14 35 -8 5 -9
9 -3 9 5 0 23 -13 39 -30z m-49 6 c8 -8 14 -23 14 -34 0 -15 -18 -24 -92 -46
-51 -15 -112 -36 -135 -46 l-41 -19 -20 40 c-21 43 -14 51 19 18 26 -26 45
-19 42 15 -2 31 6 33 35 6 25 -23 36 -26 29 -6 -4 10 0 12 14 9 15 -4 19 0 19
21 0 28 36 51 64 40 8 -3 17 -1 21 5 8 14 14 14 31 -3z m-305 -107 c29 -42 15
-54 -48 -43 -59 11 -67 34 -21 56 46 21 44 22 69 -13z m-133 -37 c4 -14 -43
-34 -72 -30 -18 3 -16 6 14 25 37 23 51 24 58 5z m-4 -67 c-4 -8 -10 -15 -15
-15 -5 0 -9 7 -9 15 0 8 7 15 15 15 9 0 12 -6 9 -15z m481 -14 c3 -5 1 -12 -5
-16 -5 -3 -10 1 -10 9 0 18 6 21 15 7z m-82 -25 c6 -16 -39 -44 -50 -31 -5 4
-2 10 5 12 6 3 12 11 12 19 0 18 26 18 33 0z m-76 -16 c8 -12 9 -21 3 -25 -15
-9 -30 4 -30 26 0 24 12 24 27 -1z m-87 -24 c0 -2 2 -11 6 -19 3 -9 -6 -18
-28 -27 -18 -6 -77 -30 -130 -51 -85 -34 -153 -51 -135 -33 3 4 0 22 -8 41
-20 47 -19 51 6 19 31 -39 91 -30 108 16 7 19 8 19 24 3 25 -24 52 -15 52 18
-1 32 11 36 20 7 7 -22 34 -27 52 -9 6 6 9 18 6 25 -3 8 1 14 11 14 9 0 16 -2
16 -4z m1707 -113 c-3 -10 -5 -4 -5 12 0 17 2 24 5 18 2 -7 2 -21 0 -30z
m-2028 -12 l24 -18 -57 -22 c-62 -23 -76 -21 -76 9 0 15 6 19 27 18 16 -2 30
4 37 15 13 21 15 21 45 -2z m-203 -33 l39 -3 -42 -13 c-24 -7 -64 -23 -90 -37
-45 -22 -205 -78 -207 -73 -1 2 -7 13 -13 25 -12 21 -10 24 19 39 28 15 32 15
40 0 5 -9 15 -16 22 -16 19 0 48 47 44 73 -4 30 31 37 39 8 7 -27 53 -30 53
-3 0 10 6 24 13 31 10 10 15 8 28 -8 10 -12 31 -21 55 -23z m2231 -70 c-3 -8
-6 -5 -6 6 -1 11 2 17 5 13 3 -3 4 -12 1 -19z m-2596 -79 c-48 -34 -71 -37
-71 -9 0 11 5 20 11 20 6 0 22 9 36 20 20 15 29 17 45 9 18 -10 16 -12 -21
-40z m-111 -1 c-1 -47 -29 -79 -54 -60 -30 24 -56 20 -80 -10 -30 -39 -76 -47
-76 -13 0 26 14 40 50 49 14 4 34 11 45 15 17 8 84 26 108 30 4 0 7 -5 7 -11z
m-277 -59 l22 -20 -27 10 c-27 10 -28 9 -34 -29 -6 -39 -23 -55 -25 -25 -1 8
-2 19 -3 25 -1 10 33 60 41 60 2 0 14 -9 26 -21z m1882 -34 c-16 -14 -39 -25
-49 -25 -15 0 -17 -3 -8 -12 9 -9 16 -8 29 4 12 10 25 13 38 8 11 -5 14 -9 7
-9 -9 -1 -11 -8 -7 -22 6 -18 4 -20 -15 -14 -16 5 -20 4 -15 -5 5 -9 2 -10
-13 -6 -13 5 -22 1 -27 -11 -6 -15 -10 -11 -25 22 l-17 40 35 18 c20 9 44 17
54 17 10 0 18 5 18 10 0 6 6 10 13 10 6 -1 -1 -12 -18 -25z m50 5 c-3 -5 -11
-10 -16 -10 -6 0 -7 5 -4 10 3 6 11 10 16 10 6 0 7 -4 4 -10z m-1885 -45 c-7
-9 -15 -13 -19 -10 -3 3 1 10 9 15 21 14 24 12 10 -5z m1693 -7 c9 -7 21 -27
26 -44 8 -29 7 -32 -28 -49 -20 -9 -53 -23 -73 -31 l-38 -13 0 30 c0 16 -7 41
-16 54 -16 24 -15 25 7 25 13 0 40 8 59 19 44 24 43 23 63 9z m-1952 -18 c10
-6 19 -17 19 -25 0 -11 7 -11 38 -3 20 5 41 14 47 19 5 5 16 9 25 9 24 -1 -39
-48 -90 -67 -25 -9 -76 -29 -114 -45 -38 -15 -71 -27 -73 -25 -2 2 6 15 18 28
11 13 18 18 14 12 -3 -7 -1 -13 5 -13 6 0 13 7 17 16 3 8 12 13 19 10 8 -3 11
0 7 10 -3 8 -2 14 3 12 5 -2 20 5 34 15 13 9 20 17 15 17 -6 0 -3 5 5 10 12 8
10 10 -8 10 -13 0 -20 4 -17 10 8 13 12 12 36 0z m-56 -29 c-3 -6 -11 -11 -17
-11 -6 0 -6 6 2 15 14 17 26 13 15 -4z m-175 -35 c0 -20 -14 -28 -36 -19 -16
6 -16 7 2 20 23 17 34 17 34 -1z m6082 5 c20 -5 43 -15 51 -22 11 -12 -5 -14
-102 -14 -112 0 -119 -1 -206 -38 -124 -53 -128 -54 -123 -31 12 65 259 133
380 105z m-4062 -56 c0 -19 -71 -30 -81 -13 -7 11 -9 11 -9 -1 0 -9 -8 -12
-25 -9 -18 4 -25 1 -26 -11 -1 -9 -2 -25 -3 -36 -1 -24 -36 -34 -36 -11 0 23
-13 20 -40 -9 -31 -33 -50 -32 -50 3 0 15 -5 33 -12 40 -6 6 -9 15 -5 19 4 4
13 1 19 -5 18 -18 68 -15 75 4 3 9 1 26 -6 37 -22 35 3 41 49 12 27 -17 41
-22 37 -13 -3 8 -2 21 3 28 6 9 9 8 14 -7 9 -28 55 -48 62 -28 4 9 4 25 1 38
l-6 22 20 -24 c10 -13 19 -29 19 -36z m-1414 -29 c7 -41 0 -56 -26 -56 -17 0
-18 4 -10 25 6 14 10 27 10 30 0 3 0 12 0 20 0 29 19 15 26 -19z m-610 8 c-3
-9 -6 -18 -6 -20 0 -2 -4 -4 -9 -4 -5 0 -7 9 -4 20 3 11 10 20 15 20 6 0 7 -7
4 -16z m1641 -21 c6 -16 13 -46 16 -69 l5 -40 -117 -38 c-64 -21 -133 -48
-153 -59 -37 -20 -38 -20 -58 -2 -20 18 -19 19 67 63 49 24 99 51 111 59 23
14 23 15 6 34 -31 34 -9 30 40 -6 25 -20 50 -34 55 -30 5 3 7 30 4 60 -6 59 5
72 24 28z m1790 -25 c-2 -13 -4 -5 -4 17 -1 22 1 32 4 23 2 -10 2 -28 0 -40z
m-3009 18 c-11 -26 -34 -40 -48 -31 -11 7 30 52 47 54 10 1 10 -5 1 -23z m112
-16 c8 -5 11 -12 7 -16 -4 -4 -15 0 -24 9 -18 18 -8 23 17 7z m-230 -9 c0 -5
-10 -11 -22 -14 -36 -8 -92 -31 -99 -41 -4 -4 -9 -4 -12 1 -7 11 18 25 83 47
25 8 46 15 48 16 1 0 2 -4 2 -9z m-10 -65 c0 -43 -35 -62 -59 -32 -10 12 -7
18 16 30 35 19 43 20 43 2z m94 8 c22 -9 20 -34 -3 -34 -19 0 -35 23 -24 34 8
7 8 7 27 0z m86 -4 c0 -5 -5 -10 -11 -10 -5 0 -7 5 -4 10 3 6 8 10 11 10 2 0
4 -4 4 -10z m100 6 c0 -3 -4 -8 -10 -11 -5 -3 -10 -1 -10 4 0 6 5 11 10 11 6
0 10 -2 10 -4z m822 -18 c-7 -7 -12 -8 -12 -2 0 14 12 26 19 19 2 -3 -1 -11
-7 -17z m2035 -231 c-1 -45 -3 -5 -3 88 0 94 2 130 3 82 2 -48 2 -125 0 -170z
m-3208 187 c12 -15 21 -30 21 -34 0 -8 -59 -35 -63 -29 -22 39 -27 52 -27 69
0 30 44 26 69 -6z m71 -19 c-7 -9 -15 -13 -18 -10 -3 2 1 11 8 20 7 9 15 13
18 10 3 -2 -1 -11 -8 -20z m1000 -36 c0 -23 -6 -32 -27 -40 -35 -13 -73 -4
-73 19 0 13 2 14 9 4 14 -22 46 -10 44 16 -2 12 2 22 7 22 6 0 9 3 9 8 -3 19
2 23 16 12 8 -7 15 -26 15 -41z m-94 9 c-10 -6 -20 -7 -24 -3 -9 8 20 25 31
18 5 -3 2 -10 -7 -15z m596 -80 c-9 -9 -15 -9 -24 0 -10 10 -10 15 2 22 20 12
38 -6 22 -22z m-962 -34 c0 -19 5 -24 25 -24 25 0 44 -24 31 -37 -4 -4 -27 1
-53 10 l-46 17 -63 -52 c-34 -29 -63 -58 -63 -64 -1 -6 8 -19 19 -29 11 -10
20 -24 20 -32 0 -7 4 -13 9 -13 5 0 11 -7 15 -15 12 -32 -11 -13 -42 35 -18
28 -37 50 -42 50 -5 0 -33 23 -61 51 -40 39 -48 53 -38 60 22 14 26 11 48 -26
35 -59 67 -59 145 1 43 33 46 38 33 52 -14 14 -13 17 16 32 38 19 47 17 47
-16z m881 13 c11 3 19 0 19 -6 0 -6 -11 -11 -24 -11 -14 0 -32 -7 -40 -16 -19
-19 -38 -10 -29 14 9 24 24 32 41 23 8 -5 23 -6 33 -4z m1609 3 c0 -6 -11 -16
-25 -22 -14 -6 -25 -15 -25 -20 0 -5 -13 -14 -30 -19 -16 -6 -30 -16 -30 -22
0 -7 -5 -4 -11 6 -14 24 -29 21 -29 -5 0 -19 -2 -20 -10 -8 -8 12 -10 12 -10
-5 0 -15 -4 -12 -17 13 -8 18 -14 34 -12 35 2 1 38 14 79 29 80 28 120 34 120
18z m-1700 -31 c7 -11 10 -22 8 -24 -7 -6 -131 -58 -216 -89 -59 -22 -72 -20
-85 14 -6 17 -15 30 -20 30 -4 0 -5 6 -1 13 5 9 4 9 -6 0 -12 -11 -11 -19 4
-49 19 -40 12 -60 -10 -30 -8 11 -14 37 -14 58 0 47 22 60 51 29 11 -11 21
-21 24 -21 15 0 35 15 35 26 0 19 29 18 36 -1 4 -8 14 -15 24 -15 23 0 45 26
30 35 -5 3 -10 11 -10 16 0 6 12 1 26 -10 28 -22 44 -20 44 7 0 12 3 13 12 4
18 -18 28 -15 28 8 0 26 26 26 40 -1z m1455 -62 c0 -28 -14 -49 -26 -42 -5 4
-9 -1 -9 -9 0 -10 -9 -16 -25 -16 -14 0 -25 -4 -25 -10 0 -20 -37 -9 -63 18
l-28 29 73 24 c94 32 104 33 103 6z m-206 -21 c32 -34 25 -68 -16 -81 -18 -5
-33 -15 -33 -22 0 -7 -3 -12 -7 -11 -5 1 -21 -4 -36 -10 -15 -7 -45 -14 -66
-17 -33 -4 -39 -1 -50 21 -15 34 -10 39 45 53 69 17 103 38 110 66 8 31 24 32
53 1z m-1612 -34 c25 -44 23 -62 -4 -62 -20 0 -53 28 -53 45 0 7 -7 18 -15 25
-12 10 -13 16 -3 27 20 24 50 10 75 -35z m5526 34 c21 -1 41 2 43 5 2 4 19 3
37 -2 17 -5 82 -18 142 -30 119 -22 269 -64 380 -106 185 -69 436 -215 555
-322 l55 -49 -120 5 c-282 13 -483 -85 -589 -287 -131 -250 -88 -592 87 -682
21 -10 61 -22 88 -25 l49 -6 0 -61 c0 -123 52 -246 135 -325 88 -83 167 -113
299 -112 129 1 224 37 330 124 39 32 46 35 35 16 -7 -13 -14 -48 -15 -78 -8
-153 -86 -367 -206 -564 -54 -89 -127 -186 -141 -187 -10 0 19 45 58 91 60 73
75 94 81 117 3 12 10 22 15 22 5 0 9 5 9 11 0 7 10 32 22 56 19 37 20 46 8 53
-19 12 -37 -4 -45 -41 -4 -17 -15 -35 -26 -42 -10 -6 -19 -16 -19 -22 -1 -16
-42 -59 -82 -85 -21 -14 -38 -31 -38 -37 0 -7 -8 -13 -19 -13 -10 0 -24 -7
-31 -15 -7 -8 -17 -15 -22 -15 -14 0 -91 -69 -143 -130 -17 -19 -43 -41 -60
-48 -24 -11 -26 -15 -14 -24 11 -8 11 -9 -3 -4 -10 3 -34 -4 -53 -15 -24 -15
-44 -19 -63 -15 -18 4 -22 4 -13 -3 18 -11 5 -31 -20 -31 -10 0 -19 -5 -19
-11 0 -6 -7 -9 -15 -5 -9 3 -15 0 -15 -10 0 -11 -4 -13 -17 -5 -13 7 -25 2
-51 -20 -19 -17 -47 -32 -63 -36 -16 -3 -29 -9 -29 -14 0 -5 -11 -9 -25 -9
-14 0 -28 -7 -31 -15 -4 -8 -10 -13 -14 -10 -4 3 -36 -8 -71 -24 -88 -39 -207
-74 -237 -68 -14 3 -37 1 -52 -3 -17 -5 -32 -4 -39 3 -14 14 -262 10 -277 -5
-4 -5 -2 -8 5 -8 7 0 10 -4 7 -9 -6 -10 43 -25 52 -16 3 3 -2 5 -11 5 -10 0
-17 5 -17 10 0 6 25 9 58 9 55 -2 55 -2 17 -9 l-40 -7 35 -2 c20 0 30 -5 25
-10 -16 -15 -505 -35 -684 -28 -294 11 -580 53 -780 113 -168 51 -262 99 -356
180 -86 75 -214 224 -247 288 -31 60 -68 221 -68 295 0 128 28 192 136 310 82
90 142 135 224 166 39 15 74 34 79 43 5 10 12 60 16 112 4 52 13 138 19 191
14 108 5 223 -23 298 -21 58 -67 91 -128 91 -41 0 -44 2 -38 23 16 52 66 147
111 209 77 103 255 299 267 291 6 -3 7 -1 3 6 -9 13 90 111 112 111 7 0 11 4
8 9 -7 11 24 38 49 43 11 2 24 13 30 26 5 12 15 22 22 22 7 0 13 6 13 13 0 20
47 51 182 118 159 79 304 134 420 159 24 5 70 16 103 25 123 32 372 45 648 31z
m-6289 -21 c-4 -8 -13 -15 -21 -15 -13 0 -13 3 -3 15 7 8 16 15 21 15 5 0 6
-7 3 -15z m1671 -9 c8 -13 13 -30 10 -38 -3 -8 -1 -27 4 -41 13 -33 0 -36 -14
-4 -9 19 -17 22 -55 20 l-45 -2 33 27 c18 15 32 35 32 45 0 24 17 21 35 -7z
m-1766 -28 c0 -33 -2 -38 -9 -23 -12 28 -12 65 0 65 6 0 10 -19 9 -42z m3028
-35 c-2 -16 -4 -5 -4 22 0 28 2 40 4 28 2 -13 2 -35 0 -50z m-3107 31 c6 -14
10 -31 10 -39 0 -15 -58 -40 -116 -50 -21 -4 -58 -18 -81 -31 -50 -29 -48 -29
-73 -2 -55 59 8 109 93 73 11 -5 17 -3 17 6 0 19 31 49 50 49 10 0 20 -9 23
-20 7 -25 36 -37 47 -19 11 16 -6 39 -29 39 -14 0 -14 2 -1 10 26 17 50 11 60
-16z m716 -7 c3 -8 18 -12 42 -9 37 4 37 4 14 -13 -13 -9 -29 -14 -37 -11 -19
7 -19 -7 1 -45 21 -41 12 -47 -35 -22 -37 20 -39 20 -77 2 -48 -23 -73 -24
-80 -4 -10 26 13 41 68 44 62 3 80 14 72 47 -5 18 -2 24 10 24 9 0 19 -6 22
-13z m1599 -62 c0 -31 -26 -50 -89 -62 -11 -2 -25 -8 -33 -14 -10 -9 -15 -5
-23 16 -6 16 -9 33 -7 38 3 11 125 55 142 52 5 -1 9 -14 10 -30z m-1835 -13
c0 -4 -5 -13 -11 -19 -17 -17 0 -35 26 -29 26 7 50 -16 41 -39 -8 -21 -40 -19
-61 5 -19 21 -45 27 -45 10 0 -13 -56 -41 -64 -33 -4 4 17 30 46 59 52 51 68
62 68 46z m1062 -17 c6 -14 9 -28 6 -30 -3 -3 -35 -17 -72 -30 -60 -22 -177
-73 -218 -96 -29 -15 -38 -11 -38 18 0 14 -7 35 -17 45 -24 26 4 24 33 -3 25
-24 48 -17 41 12 -6 23 8 35 20 17 4 -7 8 -16 9 -20 1 -5 2 -11 3 -15 1 -5 15
8 31 27 23 27 33 31 42 22 16 -16 28 -15 28 3 0 15 6 17 65 19 25 1 31 6 33
29 4 34 19 35 34 2z m561 -9 c4 -10 1 -13 -8 -9 -8 3 -12 9 -9 14 7 12 11 11
17 -5z m-2453 -3 c0 -5 -5 -15 -10 -23 -8 -12 -10 -11 -10 8 0 12 5 22 10 22
6 0 10 -3 10 -7z m2330 -18 c0 5 5 4 11 -2 6 -6 18 -9 25 -6 15 5 44 -19 44
-36 0 -6 16 -11 35 -11 36 0 47 -13 19 -24 -9 -3 -29 -6 -45 -6 -24 0 -28 4
-26 22 1 15 -4 23 -17 26 -23 5 -38 -16 -31 -45 6 -27 -14 -42 -108 -77 -63
-23 -70 -24 -84 -10 -14 13 -14 17 -2 25 8 5 22 9 31 9 10 0 33 8 53 17 37 17
46 48 23 71 -17 17 0 28 23 14 27 -17 37 -8 32 25 -4 22 -2 25 6 13 6 -8 11
-11 11 -5z m90 -1 c0 -8 -4 -12 -10 -9 -5 3 -10 10 -10 16 0 5 5 9 10 9 6 0
10 -7 10 -16z m50 -14 c0 -5 -4 -10 -10 -10 -5 0 -10 5 -10 10 0 6 5 10 10 10
6 0 10 -4 10 -10z m-950 -71 c15 -26 5 -37 -20 -21 -24 15 -33 15 -25 2 3 -5
1 -10 -4 -10 -12 0 -15 33 -4 43 13 14 43 6 53 -14z m-919 -92 c-18 -18 -25 2
-10 30 14 26 14 26 17 4 2 -13 -1 -28 -7 -34z m1449 44 c0 -13 -28 -22 -35
-11 -3 4 1 11 7 13 20 8 28 8 28 -2z m-506 -11 c-17 -15 -62 -20 -67 -7 -3 8
8 12 35 14 22 0 36 -2 32 -7z m452 -53 c8 -11 14 -20 12 -21 -29 -17 -192 -76
-210 -76 -4 0 -8 9 -8 21 0 11 -4 29 -10 39 -8 15 -6 17 10 13 11 -3 20 -10
20 -15 0 -5 10 -8 23 -6 16 2 22 9 21 26 0 12 2 22 5 23 3 0 14 2 23 4 9 2 19
-3 22 -11 8 -21 36 -5 36 20 0 32 12 40 27 19 8 -10 20 -26 29 -36z m-1440 -2
c-11 -8 -29 -15 -39 -15 -16 0 -17 3 -7 15 7 8 24 15 39 15 25 -1 25 -1 7 -15z
m-74 -57 c-7 -7 -12 -8 -12 -2 0 14 12 26 19 19 2 -3 -1 -11 -7 -17z m-45 4
c10 -6 10 -12 -2 -28 -12 -16 -16 -17 -24 -5 -9 14 -4 41 8 41 3 0 12 -4 18
-8z m1195 -34 c3 -21 7 -23 57 -20 62 4 68 -15 10 -34 -19 -5 -54 -20 -79 -31
-80 -37 -87 -37 -104 -4 -30 58 -12 100 18 44 8 -16 15 -23 16 -16 0 6 10 13
22 15 15 2 25 13 32 36 10 37 23 42 28 10z m116 10 c-7 -20 -48 -23 -48 -4 0
11 9 16 26 16 16 0 24 -5 22 -12z m-1585 -58 c21 -30 22 -50 3 -50 -13 0 -46
66 -46 91 0 12 18 -5 43 -41z m-46 -52 c10 -11 12 -18 5 -18 -13 0 -36 41 -46
80 -3 15 0 11 10 -10 9 -19 23 -43 31 -52z m218 71 c-4 -5 -11 -9 -17 -9 -6 0
-19 -6 -27 -14 -9 -7 -31 -18 -49 -24 -32 -11 -32 -11 -17 11 8 11 24 26 36
33 26 14 82 16 74 3z m1154 -53 c16 -29 11 -60 -9 -63 -21 -4 -76 97 -59 108
16 9 52 -14 68 -45z m-775 -21 l25 -46 -25 -9 c-14 -6 -27 -10 -30 -10 -2 0
-4 25 -4 55 0 30 2 55 4 55 2 0 16 -20 30 -45z m641 25 c22 9 28 5 50 -30 36
-58 31 -76 -15 -48 -17 11 -23 9 -45 -15 -41 -43 -68 -32 -77 31 -4 25 -1 32
13 32 10 0 20 11 24 27 6 24 8 25 16 11 8 -14 15 -15 34 -8z m-755 -41 c0 -27
-2 -30 -15 -19 -8 7 -15 21 -15 31 0 11 7 19 15 19 10 0 15 -10 15 -31z m-100
-15 c0 -29 -24 -42 -45 -24 -21 18 -19 35 8 47 28 13 37 8 37 -23z m7538 10
c29 -9 50 -19 48 -21 -2 -2 -48 1 -102 8 -85 11 -113 10 -197 -4 -54 -10 -110
-17 -125 -17 -25 0 -24 1 13 21 22 12 51 26 65 30 41 14 239 2 298 -17z
m-5138 -9 c7 -8 9 -15 4 -15 -5 0 -3 -4 5 -9 10 -7 8 -10 -10 -16 -13 -4 -33
-15 -44 -25 -11 -10 -30 -21 -43 -25 -12 -3 -20 -11 -17 -16 4 -5 -9 -9 -27
-9 -25 0 -29 -3 -18 -10 13 -9 13 -10 0 -11 -8 -1 -18 -1 -22 0 -5 0 -8 -4 -8
-10 0 -28 -34 1 -50 43 l-17 46 101 35 c118 40 129 42 146 22z m-2480 -39 c0
-14 12 -38 26 -55 28 -34 19 -42 -15 -13 -24 19 -41 92 -22 92 6 0 11 -11 11
-24z m7722 -3 c8 -10 4 -10 -23 -1 -45 15 -48 19 -15 16 15 -1 32 -8 38 -15z
m-7522 -2 c0 -9 -38 -23 -79 -27 -31 -4 -24 2 24 19 50 18 55 19 55 8z m526
-23 c7 -5 14 -17 17 -27 4 -16 -3 -20 -51 -26 -36 -4 -68 -16 -88 -32 -19 -14
-43 -23 -56 -22 -13 2 -28 0 -35 -4 -26 -16 -157 -66 -163 -62 -4 3 -13 18
-20 35 -11 27 -11 34 3 47 8 9 23 13 31 10 20 -8 21 -27 1 -27 -9 0 -12 -6 -9
-15 5 -12 12 -11 45 5 29 16 39 26 39 45 0 29 16 33 25 6 9 -28 55 -16 55 15
0 28 8 30 25 8 17 -24 55 -9 55 22 0 13 3 23 8 22 4 0 14 1 22 5 35 13 46 15
65 10 11 -3 25 -10 31 -15z m1506 -44 c11 -25 16 -50 11 -54 -12 -12 -171 -69
-176 -63 -11 10 6 41 29 52 29 13 32 41 5 41 -11 0 -22 4 -25 9 -7 10 17 21
45 21 10 0 24 9 31 20 7 11 23 20 36 20 18 0 28 -10 44 -46z m-2298 2 c20 -10
23 -16 14 -23 -38 -29 -65 -21 -53 17 8 24 6 24 39 6z m2056 -45 c0 -5 3 -18
6 -28 4 -13 3 -14 -3 -5 -7 10 -14 7 -28 -12 -11 -14 -33 -28 -50 -32 -16 -4
-36 -15 -42 -24 -8 -11 -21 -16 -32 -13 -10 3 -22 0 -25 -6 -9 -13 -36 -3 -36
14 0 8 -7 21 -16 29 -18 19 -24 16 101 57 85 29 125 35 125 20z m-1795 -71
c14 -15 16 -23 7 -32 -8 -8 -17 -5 -36 13 -13 13 -22 27 -20 31 9 14 30 9 49
-12z m123 -17 c3 -22 -18 -35 -48 -30 -38 6 -55 37 -21 37 11 0 23 5 26 11 11
17 40 5 43 -18z m1394 -10 c-6 -2 -9 -10 -6 -15 4 -7 2 -8 -4 -4 -18 11 -14
26 6 25 10 0 12 -3 4 -6z m-1575 -27 c20 -23 20 -36 1 -36 -4 0 -8 7 -8 15 0
9 -7 18 -15 21 -8 4 -15 10 -15 15 0 16 16 10 37 -15z m1503 -16 c16 -30 12
-56 -16 -89 -18 -21 -35 -31 -54 -31 -23 0 -32 7 -49 44 -26 53 -21 69 31 95
45 22 69 17 88 -19z m109 11 c-3 -6 -10 -7 -18 -2 -7 5 -10 14 -6 21 9 14 29
-2 24 -19z m-1689 5 c0 -2 -8 -10 -17 -17 -16 -13 -17 -12 -4 4 13 16 21 21
21 13z m2835 -6 c-3 -5 -16 -10 -28 -9 -20 1 -20 2 3 9 14 4 26 8 28 9 2 1 0
-3 -3 -9z m-2874 -61 c-13 -37 -101 -115 -111 -99 -6 10 -18 9 -54 -5 -50 -19
-76 -14 -32 6 29 14 30 17 16 53 -12 34 1 34 44 1 18 -14 38 -25 44 -25 15 0
92 76 92 91 0 7 2 10 5 7 3 -3 1 -16 -4 -29z m1446 -1 c-3 -8 -6 -5 -6 6 -1
11 2 17 5 13 3 -3 4 -12 1 -19z m-113 -85 c3 -26 3 -50 -1 -54 -13 -13 -256
-99 -288 -103 -11 -1 -38 -11 -60 -22 -46 -24 -135 -56 -217 -78 -31 -9 -85
-29 -121 -45 -58 -26 -66 -28 -80 -14 -14 15 -18 13 -42 -15 -32 -38 -54 -40
-78 -7 -17 24 -17 25 0 31 10 3 30 12 45 20 14 8 51 14 83 14 61 0 117 22 109
43 -3 8 1 19 9 26 18 14 50 3 43 -14 -3 -8 1 -16 9 -19 10 -3 15 5 17 26 3 27
9 34 46 47 41 15 43 14 58 -7 19 -27 44 -29 44 -3 0 28 26 44 60 37 22 -4 30
-2 30 9 0 8 17 22 37 30 30 13 42 14 60 4 13 -7 26 -9 30 -4 5 4 2 10 -4 12
-21 7 -15 23 8 23 28 0 59 18 59 34 0 8 7 19 15 26 12 10 19 7 39 -15 30 -32
42 -27 57 25 7 22 15 40 19 40 4 0 10 -21 14 -47z m-1772 -32 c-3 -22 1 -32
18 -41 15 -8 19 -15 12 -22 -15 -15 -61 22 -62 48 0 19 17 44 30 44 4 0 5 -13
2 -29z m136 -23 c-6 -18 -28 -21 -28 -4 0 9 7 16 16 16 9 0 14 -5 12 -12z
m1292 -42 c0 -3 -4 -8 -10 -11 -5 -3 -10 -1 -10 4 0 6 5 11 10 11 6 0 10 -2
10 -4z m1132 -32 c-63 -29 -129 -45 -72 -18 70 34 95 44 110 43 8 0 -9 -11
-38 -25z m-237 -82 c-16 -14 -127 -59 -165 -67 -61 -13 -21 10 75 43 99 35
103 36 90 24z m-1255 -33 c0 -5 -7 -9 -15 -9 -15 0 -20 12 -9 23 8 8 24 -1 24
-14z m-288 -82 c39 -33 45 -67 14 -96 -29 -27 -53 -25 -75 8 -15 23 -15 24 4
14 11 -6 26 -8 33 -6 13 5 16 41 6 67 -7 18 -34 22 -34 4 0 -6 -3 -8 -6 -5 -7
7 14 37 25 37 3 -1 18 -11 33 -23z m1228 -1 c0 -2 -11 -6 -25 -8 -14 -3 -25
-1 -25 3 0 5 11 9 25 9 14 0 25 -2 25 -4z m2887 -141 c49 -34 51 -138 3 -162
-33 -16 -43 -9 -63 50 -26 75 -30 95 -23 112 7 19 55 19 83 0z m-3277 -10 c0
-5 -51 -28 -58 -26 -1 1 -18 -6 -38 -14 -20 -8 -42 -15 -48 -14 -6 0 21 13 59
29 75 30 85 33 85 25z m-170 -65 c-8 -5 -22 -9 -30 -9 -10 0 -8 3 5 9 27 12
43 12 25 0z m-1221 -76 c22 -37 26 -54 13 -54 -7 0 -25 30 -50 83 -2 4 1 7 6
7 6 0 19 -16 31 -36z m979 -179 c-7 -7 -31 -15 -53 -18 l-40 -5 40 19 c22 10
39 24 37 30 -2 9 2 8 13 -1 13 -11 14 -16 3 -25z m-778 5 c-8 -5 -22 -10 -30
-10 -13 0 -13 1 0 10 8 5 22 10 30 10 13 0 13 -1 0 -10z m650 -40 c18 -16 27
-30 20 -30 -16 0 -70 39 -70 51 0 17 17 9 50 -21z m-723 14 c-3 -3 -12 -4 -19
-1 -8 3 -5 6 6 6 11 1 17 -2 13 -5z m690 -87 c-12 19 8 23 33 6 29 -21 23 -24
-115 -62 -105 -30 -130 -31 -122 -8 2 7 0 22 -4 35 -7 19 -5 22 16 22 13 0 27
-4 30 -10 11 -17 51 -11 86 13 32 22 36 22 59 8 13 -9 21 -11 17 -4z m493 -2
c36 -39 26 -47 -153 -119 -109 -45 -120 -45 -135 -3 -18 50 -14 55 14 20 37
-48 48 -42 40 18 -6 47 -5 51 11 44 10 -5 33 -10 51 -13 25 -3 32 -1 32 12 0
19 16 22 23 4 5 -18 63 4 59 22 -10 43 23 52 58 15z m2988 -88 c19 -22 19 -22
-8 -75 l-26 -54 -22 84 c-23 87 -26 115 -16 143 5 13 12 5 29 -30 13 -25 32
-56 43 -68z m-3731 7 c-4 -4 -14 1 -22 12 -22 29 -18 41 7 17 12 -13 19 -26
15 -29z m-79 -7 c14 -14 18 -27 13 -36 -10 -16 -31 -6 -31 15 0 19 -39 18 -62
-3 -10 -9 -18 -11 -18 -6 0 10 57 52 71 53 3 0 15 -10 27 -23z m1650 -45 c-32
-40 -64 -53 -95 -41 -21 8 -23 12 -13 24 12 14 88 43 118 44 9 1 5 -9 -10 -27z
m-1134 -21 c24 -9 22 -10 -79 -51 -44 -17 -109 -44 -145 -60 -36 -16 -89 -36
-118 -46 -51 -16 -53 -16 -67 2 -20 26 -18 37 6 52 14 9 25 10 32 3 16 -13 77
13 77 34 0 18 7 19 49 4 17 -6 48 -8 67 -4 33 6 36 9 32 35 -4 26 -2 28 21 24
14 -2 40 0 56 5 37 11 45 12 69 2z m1013 -18 c6 -17 -35 -27 -52 -13 -8 7 -12
17 -9 22 8 13 57 6 61 -9z m-1809 -46 c2 -10 -3 -17 -13 -17 -19 0 -91 -35
-124 -61 -25 -20 -51 -25 -51 -10 0 5 34 24 75 42 43 20 78 42 81 52 7 21 28
17 32 -6z m-255 -82 c-20 -26 -29 -31 -31 -20 -6 26 6 45 28 45 12 0 20 7 21
18 0 9 3 12 6 5 2 -7 -8 -28 -24 -48z m607 -10 c19 -35 1 -53 -35 -37 -33 15
-35 15 -35 -3 0 -23 -60 -55 -101 -55 -20 0 -42 -7 -49 -15 -14 -17 -40 -20
-40 -5 0 5 -8 7 -17 4 -14 -5 -15 -4 -4 4 7 5 11 15 7 21 -5 7 -1 9 9 5 27
-11 65 5 65 26 0 24 13 26 30 5 19 -23 54 -15 58 13 2 12 9 22 17 22 7 0 23 9
36 20 32 26 43 25 59 -5z m2576 13 c12 -19 -39 -54 -111 -77 -37 -12 -68 -21
-70 -19 -1 2 -5 12 -9 24 -8 27 7 39 75 64 62 22 105 25 115 8z m-1380 -34
c18 7 54 -10 54 -26 0 -6 -11 -8 -30 -4 -22 4 -32 1 -36 -8 -10 -25 -36 -27
-55 -5 -34 39 -23 63 22 47 16 -5 36 -7 45 -4z m-1541 -65 c-4 -5 -2 -9 3 -9
6 0 12 -7 16 -15 3 -10 -1 -15 -14 -15 -10 0 -21 9 -25 20 -7 23 2 43 16 34 5
-3 7 -10 4 -15z m1440 1 c0 -21 -32 -37 -52 -24 -28 17 -26 32 4 37 38 5 48 3
48 -13z m1199 4 c7 -19 -24 -62 -41 -57 -6 2 -18 -6 -27 -19 -9 -12 -16 -19
-16 -14 0 5 -6 4 -12 -2 -22 -17 -87 -25 -102 -12 -12 9 -19 7 -35 -9 -26 -26
-33 -26 -56 -1 -20 22 -14 50 12 50 10 0 70 18 133 40 132 45 136 45 144 24z
m-1287 -21 c13 -14 23 -29 23 -33 0 -7 -66 -40 -81 -40 -6 0 -9 7 -5 15 9 24
-11 17 -39 -12 -14 -16 -25 -22 -25 -14 0 11 -5 10 -24 -2 -20 -14 -26 -14
-36 -3 -17 22 29 68 54 54 26 -15 86 14 86 42 0 28 20 25 47 -7z m6360 5 c-3
-8 -6 -5 -6 6 -1 11 2 17 5 13 3 -3 4 -12 1 -19z m-7647 -38 c0 -5 -2 -10 -4
-10 -3 0 -8 5 -11 10 -3 6 -1 10 4 10 6 0 11 -4 11 -10z m1058 -38 c26 -36 15
-57 -44 -82 -34 -15 -42 -23 -38 -37 3 -10 -2 -7 -10 7 -23 37 -20 51 8 44 20
-5 27 0 41 26 9 17 13 40 10 50 -9 29 11 24 33 -8z m-1158 0 c0 -4 -10 -13
-22 -21 -23 -14 -23 -14 -4 8 20 22 26 25 26 13z m1068 -6 c-10 -7 -18 -22
-18 -32 0 -17 -1 -18 -17 -1 -17 17 -17 19 1 33 11 8 27 14 35 14 14 -1 13 -3
-1 -14z m-1150 -53 l37 17 -35 -30 c-41 -36 -43 -36 -70 -8 -30 33 -26 57 5
28 25 -23 26 -23 63 -7z m2355 -5 c4 -10 8 -9 16 2 10 13 12 13 21 0 22 -34 5
-66 -53 -99 -50 -28 -57 -27 -91 15 -21 27 -25 39 -17 47 13 13 48 -4 44 -22
-2 -6 4 -8 12 -5 8 4 15 17 15 30 0 32 43 58 53 32z m-1282 -41 c-12 -12 -45
-1 -37 12 3 5 15 7 27 4 13 -4 17 -9 10 -16z m-52 -11 c10 -12 8 -17 -8 -25
-31 -17 -41 -13 -41 14 0 28 29 35 49 11z m-69 -42 c0 -8 -9 -14 -20 -14 -11
0 -29 -6 -40 -12 -16 -10 -24 -10 -40 0 -17 11 -20 10 -20 -8 0 -22 -35 -46
-45 -30 -7 12 -45 14 -45 2 0 -4 5 -13 11 -19 19 -19 2 -43 -28 -43 -22 0 -31
7 -41 30 -14 31 -9 50 13 50 7 0 32 11 56 25 28 15 52 22 66 19 34 -9 71 3 78
26 6 18 8 19 31 4 13 -9 24 -23 24 -30z m1244 11 c9 -13 16 -26 16 -28 0 -8
-40 -5 -45 4 -15 24 -31 7 -27 -27 4 -36 4 -37 -22 -30 -15 4 -32 3 -39 -1
-21 -14 -81 -33 -103 -33 -12 0 -31 -9 -44 -20 -26 -23 -40 -25 -40 -7 0 23
15 36 55 49 33 11 40 18 40 39 -1 25 1 26 21 13 16 -11 28 -12 48 -4 22 8 25
14 20 34 -5 23 -3 25 38 29 23 2 48 4 54 5 7 1 19 -9 28 -23z m-1964 -45 c0
-5 -13 -16 -29 -25 -16 -8 -38 -26 -49 -40 l-20 -25 -26 21 -26 21 -38 -30
c-51 -40 -76 -52 -109 -52 -25 0 -22 3 22 24 28 12 65 37 83 54 30 28 62 34
62 11 0 -18 36 -8 70 21 35 30 60 38 60 20z m404 -56 c5 -22 3 -41 -5 -50 -14
-17 -30 -9 -22 12 3 8 -1 22 -9 32 -30 35 -30 42 0 42 26 0 31 -4 36 -36z
m6920 -9 c-4 -8 -13 -15 -21 -15 -13 0 -13 3 -3 15 7 8 16 15 21 15 5 0 6 -7
3 -15z m-4044 -35 c0 -24 -38 -41 -141 -64 -41 -9 -83 -19 -94 -22 l-20 -5 20
17 c20 16 20 16 -4 9 -16 -5 -21 -4 -17 4 9 14 62 42 68 36 2 -2 35 7 73 20
89 30 115 32 115 5z m-1710 -1 c0 -7 8 -18 18 -25 15 -12 15 -13 -10 -14 -15
0 -29 -4 -32 -9 -3 -5 -18 -12 -32 -15 -15 -4 -39 -20 -55 -37 -15 -16 -35
-29 -46 -29 -10 0 -42 -9 -71 -20 -62 -24 -82 -25 -82 -5 0 27 -31 16 -42 -15
-10 -30 -52 -60 -83 -60 -9 0 -50 -12 -92 -26 -43 -15 -79 -22 -84 -17 -5 5
-12 23 -15 41 -6 28 -4 32 15 32 12 0 33 -7 47 -16 24 -16 26 -16 64 15 21 17
49 31 63 31 26 0 50 16 65 45 9 16 21 20 69 20 44 0 58 4 59 15 2 32 5 34 19
16 17 -22 71 -15 62 9 -9 22 20 38 59 32 29 -5 39 -2 56 19 23 25 48 32 48 13z
m5705 -28 c17 -7 13 -12 -30 -44 -28 -20 -56 -37 -62 -37 -7 0 -13 -4 -13 -9
0 -10 -50 -25 -58 -16 -3 3 5 13 18 23 70 51 103 71 111 66 5 -3 6 2 3 10 -7
17 0 19 31 7z m-7858 -53 c-3 -7 -5 -2 -5 12 0 14 2 19 5 13 2 -7 2 -19 0 -25z
m177 13 c3 -5 0 -14 -8 -20 -10 -8 -17 -6 -31 9 -18 20 -17 20 8 20 14 0 28
-4 31 -9z m7506 -79 c0 -13 -12 -22 -22 -16 -10 6 -1 24 13 24 5 0 9 -4 9 -8z
m-60 -22 c0 -5 -2 -10 -4 -10 -3 0 -8 5 -11 10 -3 6 -1 10 4 10 6 0 11 -4 11
-10z m-6985 -40 c0 -16 -6 -26 -17 -28 -14 -3 -18 3 -18 28 0 25 4 31 18 28
11 -2 17 -12 17 -28z m6953 13 c2 -7 -5 -16 -15 -19 -10 -4 -37 -16 -61 -26
-24 -11 -49 -17 -55 -15 -7 3 0 8 16 12 15 4 27 11 27 16 0 5 18 12 40 15 42
7 52 19 23 28 -15 4 -15 5 1 3 11 -1 21 -8 24 -14z m-7008 -47 c0 -6 -125 -64
-198 -92 -34 -13 -87 -40 -116 -60 -48 -32 -59 -35 -95 -29 -43 7 -47 25 -6
25 13 0 36 10 52 23 15 12 46 31 68 41 l40 19 -28 9 c-22 8 -26 13 -16 24 18
21 38 17 49 -11 13 -34 32 -31 115 14 58 32 135 53 135 37z m711 -47 c21 -17
39 -35 39 -40 0 -10 -35 7 -58 29 -7 6 -20 12 -28 12 -8 0 -14 7 -14 15 0 23
18 18 61 -16z m6112 14 c-7 -2 -19 -2 -25 0 -7 3 -2 5 12 5 14 0 19 -2 13 -5z
m-53 -21 c0 -4 -10 -9 -22 -9 -18 -2 -20 0 -8 7 18 12 30 13 30 2z m-6089 -34
c25 -20 36 -35 30 -41 -6 -6 -21 0 -42 17 -34 29 -45 28 -112 -6 -22 -11 -41
-17 -44 -14 -7 7 95 69 125 75 2 1 21 -13 43 -31z m249 6 c0 -8 -4 -14 -10
-14 -5 0 -10 9 -10 21 0 11 5 17 10 14 6 -3 10 -13 10 -21z m-643 -21 c-6 -33
-20 -52 -40 -53 -4 0 -3 9 3 19 5 11 10 31 10 45 0 17 5 26 16 26 14 0 15 -7
11 -37z m-102 -4 c-10 -15 -25 -10 -19 6 4 8 10 12 15 9 5 -3 7 -10 4 -15z
m-121 -23 c7 -30 -3 -82 -18 -96 -10 -7 -13 6 -14 55 -2 50 1 65 12 65 8 0 17
-11 20 -24z m156 -12 c0 -8 -6 -11 -15 -8 -8 4 -15 12 -15 20 0 8 6 11 15 8 8
-4 15 -12 15 -20z m6060 -4 c0 -7 -14 -8 -37 -4 -52 9 -54 14 -5 14 23 0 42
-5 42 -10z m-6340 -38 c3 -2 -7 -1 -23 3 -24 6 -29 3 -42 -29 -18 -42 -30 -49
-14 -9 17 46 39 65 58 51 9 -7 18 -14 21 -16z m220 21 c0 -5 -14 -16 -30 -25
-29 -16 -30 -16 -30 2 0 17 7 20 53 29 4 0 7 -2 7 -6z m6063 -10 c-13 -2 -35
-2 -50 0 -16 2 -5 4 22 4 28 0 40 -2 28 -4z m-6203 -65 c0 -14 -17 -8 -35 12
-17 19 -17 19 9 7 14 -7 26 -15 26 -19z m1290 -33 c-6 -8 -49 -28 -93 -45 -45
-17 -90 -35 -101 -41 -13 -8 -21 -8 -26 0 -4 8 -16 3 -33 -13 -33 -31 -95 -45
-108 -25 -23 37 -8 45 43 24 13 -5 20 0 28 19 11 29 20 32 39 14 11 -10 14
-10 18 0 3 6 16 12 29 12 14 0 23 4 19 9 -3 5 -1 12 4 15 5 4 12 2 15 -3 11
-16 77 11 87 36 10 27 34 30 47 6 9 -15 11 -14 23 5 8 12 15 18 17 12 2 -6 -1
-17 -8 -25z m-772 13 c-3 -7 -18 -14 -34 -16 -28 -3 -28 -3 -9 12 24 19 48 21
43 4z m822 2 c0 -5 -4 -10 -10 -10 -5 0 -10 5 -10 10 0 6 5 10 10 10 6 0 10
-4 10 -10z m-970 -35 c6 -8 9 -18 6 -23 -7 -12 -62 -38 -98 -47 -43 -11 -33
10 13 28 24 10 43 24 46 37 6 24 16 25 33 5z m80 -9 c0 -18 -16 -29 -30 -21
-13 8 -1 35 16 35 8 0 14 -6 14 -14z m4623 -38 c18 -12 56 -42 84 -66 44 -36
58 -43 84 -40 l31 5 -35 -32 c-72 -66 -102 -171 -95 -332 5 -110 37 -205 103
-308 79 -123 157 -186 303 -240 48 -18 145 -58 215 -89 140 -61 288 -104 467
-136 148 -27 158 -30 138 -41 -9 -5 -48 -16 -88 -24 -166 -35 -305 -112 -429
-238 -190 -193 -302 -417 -318 -634 -6 -70 -6 -72 -20 -46 -19 37 -27 43 -20
15 3 -15 2 -20 -6 -15 -7 4 -41 15 -77 25 -56 15 -67 15 -81 3 -13 -13 -21
-13 -60 2 -24 10 -45 21 -47 25 -2 4 -14 2 -28 -4 -25 -11 -57 -5 -119 22 -87
39 -114 43 -83 12 15 -15 -4 -17 -31 -3 -9 6 -45 16 -79 24 -57 13 -61 13 -50
-2 22 -29 63 -66 70 -63 5 1 8 -2 8 -8 0 -18 -19 -10 -92 39 -164 110 -294
300 -356 521 -25 90 -27 107 -27 305 1 207 9 293 41 405 44 155 78 260 100
303 13 27 24 53 24 58 0 5 8 22 19 37 10 15 52 79 94 142 105 160 297 400 320
400 5 0 23 -10 40 -22z m-583 -2 c-121 -64 -181 -104 -245 -161 -42 -37 -67
-47 -44 -18 26 33 120 113 132 113 3 0 18 11 33 25 15 14 36 25 46 25 11 0 17
4 13 9 -5 9 20 16 70 19 17 2 16 0 -5 -12z m-4452 -78 c-2 -50 -6 -63 -20 -66
-15 -3 -18 4 -18 37 0 46 15 91 30 91 7 0 10 -23 8 -62z m5912 33 c-25 -10
-88 -28 -140 -41 -120 -28 -207 -57 -242 -81 -28 -21 -83 -25 -93 -8 -4 6 -5
13 -2 15 9 9 147 42 147 36 0 -3 5 -1 12 6 7 7 21 12 33 12 15 0 16 3 7 9 -13
8 3 17 48 26 8 1 42 10 75 18 91 24 96 25 150 25 l50 1 -45 -18z m-5790 -11
c0 -13 -34 -30 -59 -30 -32 0 -25 18 12 29 43 12 47 13 47 1z m733 -7 c34 -10
8 -43 -35 -43 -27 0 -103 -34 -114 -51 -11 -19 -22 -8 -26 26 -4 34 -4 35 20
19 22 -14 24 -14 29 5 3 12 13 21 23 21 30 0 50 11 50 27 0 11 5 13 18 8 9 -4
25 -10 35 -12z m-1015 -57 c-23 -36 -38 -46 -38 -24 0 13 51 70 57 64 3 -2 -6
-20 -19 -40z m799 -8 c28 -26 30 -48 4 -48 -21 0 -35 15 -45 48 -9 29 10 29
41 0z m-112 -10 c36 17 45 15 45 -8 0 -11 -17 -31 -44 -50 -52 -35 -57 -36
-79 -12 -13 15 -14 21 -4 32 10 10 9 12 -5 7 -12 -4 -15 -2 -11 9 3 8 12 13
19 10 8 -3 13 -2 13 2 -3 18 3 21 20 10 15 -9 25 -9 46 0z m4870 -17 c8 -14
-28 -31 -65 -31 -17 0 -47 -7 -67 -15 -19 -8 -43 -15 -51 -15 -14 0 -14 2 1
17 39 39 166 69 182 44z m-5755 -55 c26 -28 22 -51 -10 -59 -21 -5 -21 -5 -5
13 11 12 13 20 6 25 -15 9 -33 45 -23 45 5 0 19 -11 32 -24z m-55 -86 c-3 -5
-12 -10 -18 -10 -7 0 -6 4 3 10 19 12 23 12 15 0z m282 -96 c-3 -4 9 -22 28
-42 29 -31 36 -34 49 -23 9 8 16 22 16 32 0 22 13 25 29 6 8 -10 2 -21 -24
-47 l-34 -33 -27 27 c-15 15 -33 25 -40 22 -8 -3 -13 8 -16 30 -3 25 0 34 11
34 8 0 12 -3 8 -6z m-62 -28 c9 -9 13 -29 10 -60 -4 -50 -12 -69 -25 -61 -8 5
-10 135 -2 135 2 0 10 -6 17 -14z m-114 -20 c-13 -15 -80 -35 -153 -46 -68 -9
-51 0 55 31 109 32 113 33 98 15z m59 -74 c0 -13 -105 -72 -128 -72 -17 0 -22
6 -22 24 0 27 16 36 65 36 19 0 37 5 40 10 7 12 45 14 45 2z m4146 -402 c6
-18 -4 -24 -221 -135 -88 -46 -199 -104 -248 -129 -114 -60 -160 -62 -206 -11
-64 74 -27 141 125 227 130 73 309 163 403 203 l75 32 34 -86 c18 -47 35 -93
38 -101z m64 85 c0 -5 -5 -3 -10 5 -5 8 -10 20 -10 25 0 6 5 3 10 -5 5 -8 10
-19 10 -25z m146 -155 c39 -12 100 -22 141 -23 39 -1 75 -6 79 -10 25 -25
-124 -87 -208 -87 -34 0 -47 7 -79 39 -28 27 -39 47 -39 68 0 33 8 46 26 39 6
-2 43 -14 80 -26z m-155 -90 c26 -25 30 -36 27 -72 -3 -42 -4 -44 -69 -76 -37
-19 -85 -36 -107 -39 -36 -5 -45 -2 -72 25 -18 19 -30 41 -30 57 0 36 43 77
105 100 28 10 54 22 60 27 19 17 57 7 86 -22z m-830 -89 c34 -34 40 -92 13
-130 -16 -22 -251 -140 -408 -205 -83 -34 -163 -6 -191 69 -16 41 -16 46 -1
69 17 27 127 83 321 164 154 64 143 60 193 61 35 1 49 -5 73 -28z m1107 -67
l53 -26 -3 -71 c-3 -79 4 -71 -108 -115 -119 -48 -138 -49 -204 -12 -50 29
-86 62 -86 81 0 3 12 18 26 32 26 26 235 137 258 137 6 0 36 -12 64 -26z
m-634 -35 c33 -39 36 -99 6 -127 -27 -25 -137 -78 -221 -108 -70 -24 -93 -23
-155 9 -50 26 -76 60 -66 88 23 59 258 169 364 169 39 0 50 -4 72 -31z m-4478
-96 c-2 -10 -7 -45 -11 -78 -7 -70 -63 -376 -70 -383 -31 -31 -218 160 -306
313 -16 28 -29 52 -29 56 0 3 33 11 73 17 39 7 131 30 202 52 153 46 148 45
141 23z m8870 -50 c15 -16 15 -19 -15 -45 -37 -33 -43 -34 -64 -10 -18 20 -13
30 23 55 30 21 34 21 56 0z m-4162 -17 c49 -21 79 -64 72 -105 -7 -43 -30 -69
-86 -93 -89 -39 -213 -13 -239 50 -23 55 -13 71 74 118 85 47 124 53 179 30z
m-1377 -52 c13 -8 29 -27 35 -42 14 -35 12 -100 -4 -119 -7 -8 -62 -39 -123
-67 -60 -29 -153 -77 -205 -107 -115 -66 -171 -90 -221 -92 -63 -2 -109 56
-109 137 0 74 13 83 310 223 201 95 257 107 317 67z m696 -29 c51 -35 59 -71
21 -102 -42 -33 -175 -84 -226 -86 -47 -2 -103 27 -127 66 -25 39 36 88 159
128 79 26 128 24 173 -6z m1153 -68 c12 -45 23 -88 25 -96 7 -24 -65 -25 -114
-2 -56 27 -107 75 -107 100 0 22 37 45 105 67 68 21 68 21 91 -69z m-822 -31
c51 -21 76 -51 76 -89 0 -40 -17 -58 -85 -87 -174 -76 -250 -86 -311 -42 -65
47 -71 59 -45 86 25 27 183 112 243 131 57 17 82 18 122 1z m594 -41 c57 -17
80 -42 89 -99 l6 -36 -89 -42 c-76 -36 -99 -42 -154 -43 -58 0 -73 4 -123 35
-60 36 -78 63 -56 86 19 18 230 112 255 113 11 1 44 -6 72 -14z m-1318 -20
c34 -18 50 -43 50 -80 0 -48 -46 -79 -301 -206 -83 -41 -164 -42 -218 -1 -29
21 -39 65 -20 89 7 8 65 41 128 73 64 32 144 74 178 93 89 51 132 58 183 32z
m-1047 -147 c23 -31 97 -169 97 -181 0 -16 -133 -18 -198 -3 -44 10 -88 13
-116 10 -51 -7 -54 -3 -32 49 25 61 152 156 208 157 9 0 28 -15 41 -32z m6204
10 c40 -15 41 -20 7 -47 -53 -42 -135 -16 -112 35 13 27 50 32 105 12z m-4852
-17 c50 -23 73 -48 81 -88 9 -46 -23 -73 -148 -121 -116 -46 -155 -50 -214
-26 -113 46 -110 110 6 169 27 14 71 38 97 55 56 36 116 39 178 11z m639 -11
c38 -16 77 -37 87 -46 45 -41 3 -124 -63 -124 -18 0 -81 16 -140 36 -92 30
-109 39 -114 60 -8 31 16 60 71 85 54 25 78 23 159 -11z m694 -11 c27 -28 62
-123 62 -166 0 -46 -35 -80 -93 -88 -79 -12 -317 85 -317 129 0 29 80 79 195
122 79 29 129 30 153 3z m-948 -130 c41 -11 85 -30 98 -41 57 -54 -8 -138
-108 -138 -49 0 -234 36 -262 51 -13 7 -18 19 -16 37 2 21 18 37 68 70 76 50
107 53 220 21z m4212 -16 c55 -8 78 -33 78 -83 l0 -40 -115 0 c-63 0 -115 2
-115 5 0 8 61 128 72 142 8 10 13 9 25 -2 8 -8 33 -18 55 -22z m-5436 -38 c44
-13 210 -50 369 -80 160 -30 378 -73 485 -95 107 -21 223 -45 258 -52 52 -10
68 -10 95 2 18 8 57 14 87 14 46 0 70 -8 147 -48 80 -41 94 -52 102 -81 20
-73 -17 -114 -123 -135 -75 -15 -166 -7 -416 36 -354 62 -552 92 -775 118
-550 65 -740 108 -789 178 -40 57 1 95 140 126 54 12 128 28 164 36 82 19 157
13 256 -19z m1813 -61 c32 -11 62 -30 73 -45 23 -30 27 -105 7 -125 -47 -46
-261 -57 -350 -17 -85 38 -109 85 -68 137 57 72 207 95 338 50z m3821 -65 c0
-20 -15 -26 -25 -9 -9 15 3 43 15 35 5 -3 10 -15 10 -26z m-6334 -30 c47 -53
191 -136 284 -163 30 -9 341 -54 692 -101 352 -47 709 -99 796 -115 86 -16
178 -32 204 -35 53 -8 56 -22 6 -24 -70 -3 -87 -2 -198 13 -106 14 -320 30
-257 19 15 -2 25 -9 21 -15 -4 -6 16 -9 59 -6 36 1 63 0 61 -4 -2 -4 8 -8 23
-11 16 -2 -10 -2 -57 0 -107 4 -93 -3 25 -13 l90 -8 -100 -8 c-98 -7 -171 -3
-490 27 -151 15 -418 48 -495 62 -19 3 -38 6 -42 5 -19 -4 -258 41 -310 59
-104 35 -204 92 -193 110 4 5 -1 9 -10 9 -50 0 -178 101 -214 169 -21 38 -4
35 21 -3 13 -20 29 -36 36 -36 6 0 12 -5 12 -11 0 -5 5 -7 10 -4 6 3 10 1 10
-5 0 -31 43 -69 98 -86 31 -10 60 -18 64 -16 4 1 5 -5 1 -14 -5 -13 -2 -15 13
-10 10 3 26 1 34 -5 12 -8 10 -10 -10 -5 -24 5 -24 4 -5 -10 10 -8 24 -13 30
-11 5 2 16 -2 23 -10 7 -7 30 -13 50 -14 31 0 34 -2 17 -10 -15 -7 -9 -8 23
-5 23 2 40 0 36 -5 -3 -5 6 -9 20 -9 13 0 26 -5 28 -12 3 -7 29 -13 68 -14 36
-2 66 -7 67 -11 2 -5 18 -7 37 -5 19 2 43 -1 54 -7 13 -7 30 -7 53 -1 23 7 35
7 37 0 5 -14 45 -13 60 2 9 9 12 8 12 -5 0 -12 8 -17 29 -17 42 0 66 10 49 21
-7 5 -8 9 -3 9 6 0 17 -5 25 -10 13 -9 13 -11 0 -20 -11 -8 -1 -9 35 -4 57 8
71 14 31 14 -29 0 -32 20 -5 28 11 3 11 1 -1 -8 -12 -9 -8 -11 18 -6 20 4 31
2 27 -4 -3 -6 4 -10 17 -10 13 -1 60 -2 105 -3 45 -1 79 1 75 4 -4 3 -47 11
-96 18 -49 7 -155 25 -235 41 -80 16 -186 34 -236 40 -49 5 -130 15 -180 21
-49 6 -128 22 -175 36 -47 13 -91 25 -97 27 -7 1 -42 21 -78 44 -37 23 -70 42
-74 42 -13 0 -81 86 -81 102 0 16 38 7 56 -13z m457 -286 c-7 -2 -21 -2 -30 0
-10 3 -4 5 12 5 17 0 24 -2 18 -5z m-3 -23 c12 -8 11 -10 -7 -10 -13 0 -23 5
-23 10 0 13 11 13 30 0z m2220 -10 c-8 -5 -19 -10 -25 -10 -5 0 -3 5 5 10 8 5
20 10 25 10 6 0 3 -5 -5 -10z m-40 -14 c0 -11 -19 -15 -25 -6 -3 5 1 10 9 10
9 0 16 -2 16 -4z m-40 -20 c0 -2 -7 -7 -16 -10 -8 -3 -12 -2 -9 4 6 10 25 14
25 6z m-70 -30 c0 -3 -13 -11 -30 -20 -16 -8 -30 -11 -30 -6 0 7 23 18 58 29
1 1 2 -1 2 -3z m-700 -76 c0 -5 -7 -10 -16 -10 -8 0 -12 5 -9 10 3 6 10 10 16
10 5 0 9 -4 9 -10z m530 6 c0 -3 -4 -8 -10 -11 -5 -3 -10 -1 -10 4 0 6 5 11
10 11 6 0 10 -2 10 -4z m-545 -36 c4 -6 -13 -10 -44 -10 -27 0 -53 5 -56 10
-4 6 13 10 44 10 27 0 53 -4 56 -10z"/>
<path d="M3360 8461 c0 -6 4 -13 10 -16 6 -3 7 1 4 9 -7 18 -14 21 -14 7z"/>
<path d="M3335 8451 c-3 -5 -1 -12 5 -16 5 -3 10 1 10 9 0 18 -6 21 -15 7z"/>
<path d="M6806 5489 c-9 -14 -21 -19 -33 -15 -28 9 -122 -93 -166 -180 -62
-123 -81 -202 -74 -313 6 -106 23 -170 93 -359 61 -165 107 -257 141 -279 15
-10 63 -53 108 -96 82 -80 128 -112 145 -102 6 4 24 -3 40 -15 49 -35 188 -82
209 -71 21 12 55 4 96 -21 46 -28 52 -21 15 17 -28 29 -31 35 -17 41 10 3 27
4 39 0 15 -3 30 2 44 15 18 17 26 19 43 10 19 -10 20 -8 23 36 3 41 6 48 26
51 25 4 28 22 11 72 -10 27 -9 34 4 41 13 8 14 15 5 42 -5 17 -9 49 -9 70 1
20 -7 57 -18 82 -12 26 -15 45 -9 47 11 4 -11 89 -33 130 -7 13 -12 35 -10 49
6 62 -166 483 -204 498 -5 2 -23 19 -40 36 -16 18 -39 37 -50 43 -11 6 -21 21
-22 34 -2 26 -34 56 -76 70 -21 8 -26 15 -22 29 5 16 1 19 -28 19 -20 0 -40 7
-48 16 -13 16 -64 15 -142 -2 -22 -5 -26 -3 -21 10 9 23 -2 20 -20 -5z m194
-421 c25 -13 64 -47 87 -76 36 -44 43 -60 43 -97 0 -53 -26 -85 -68 -85 -42 0
-59 18 -84 90 -22 62 -25 66 -80 93 -32 15 -58 33 -58 40 0 20 14 35 40 46 40
16 73 13 120 -11z"/>
<path d="M9442 5142 c-18 -14 -20 -20 -10 -31 11 -11 9 -12 -9 -6 -14 4 -23 2
-23 -4 0 -6 4 -11 9 -11 5 0 7 -9 4 -20 -3 -11 -10 -20 -16 -20 -6 0 -8 -3 -4
-6 11 -11 46 7 41 21 -3 7 -1 16 5 20 6 3 11 15 11 25 0 10 5 20 12 22 6 2 9
9 7 16 -3 7 -11 5 -27 -6z"/>
<path d="M9456 5098 c-3 -13 -5 -39 -5 -58 1 -31 2 -29 14 20 8 30 14 56 15
58 0 1 -4 2 -9 2 -5 0 -11 -10 -15 -22z"/>
<path d="M9370 5080 c0 -5 5 -10 10 -10 6 0 10 5 10 10 0 6 -4 10 -10 10 -5 0
-10 -4 -10 -10z"/>
<path d="M9338 5073 c7 -3 16 -2 19 1 4 3 -2 6 -13 5 -11 0 -14 -3 -6 -6z"/>
<path d="M9343 5053 c9 -2 23 -2 30 0 6 3 -1 5 -18 5 -16 0 -22 -2 -12 -5z"/>
<path d="M5875 4932 c-16 -11 -38 -28 -47 -38 -46 -52 -61 -153 -34 -219 18
-41 96 -127 142 -156 20 -12 36 -31 40 -47 26 -126 60 -174 160 -223 86 -43
166 -46 238 -9 67 34 88 64 84 121 -3 42 -4 43 -15 19 -26 -58 -110 -110 -177
-110 -44 0 -122 26 -160 53 -36 26 -65 90 -66 144 0 50 11 58 90 66 79 7 106
23 131 74 19 40 20 49 9 85 -16 55 -84 119 -203 191 -111 67 -148 77 -192 49z
m155 -59 c77 -51 180 -133 180 -144 0 -5 -6 -9 -12 -9 -20 0 -130 54 -192 94
-31 20 -63 36 -71 36 -8 0 -25 -16 -37 -35 -25 -37 -38 -44 -38 -20 0 8 -4 15
-10 15 -22 0 -8 35 30 72 47 48 65 47 150 -9z"/>
<path d="M7668 3903 c12 -2 30 -2 40 0 9 3 -1 5 -23 4 -22 0 -30 -2 -17 -4z"/>
<path d="M2213 6363 c-23 -9 -14 -20 16 -21 22 0 28 3 24 14 -5 14 -18 17 -40
7z"/>
<path d="M3143 6143 c-7 -2 -13 -18 -13 -34 0 -22 5 -29 19 -29 26 0 34 15 27
46 -6 24 -11 27 -33 17z"/>
<path d="M7438 3643 c7 -3 16 -2 19 1 4 3 -2 6 -13 5 -11 0 -14 -3 -6 -6z"/>
<path d="M4058 1173 c7 -3 16 -2 19 1 4 3 -2 6 -13 5 -11 0 -14 -3 -6 -6z"/>
<path d="M4413 1169 c-13 -5 -23 -10 -23 -11 0 -2 25 -2 57 -1 66 1 92 -5 71
-18 -8 -6 -1 -9 22 -9 19 0 46 -3 60 -6 20 -4 22 -3 10 5 -12 9 -10 11 10 11
20 0 22 2 10 11 -11 8 8 9 70 6 68 -4 76 -3 40 4 -62 13 -300 19 -327 8z m170
-26 c-7 -2 -19 -2 -25 0 -7 3 -2 5 12 5 14 0 19 -2 13 -5z"/>
<path d="M4708 1123 c6 -2 18 -2 25 0 6 3 1 5 -13 5 -14 0 -19 -2 -12 -5z"/>
<path d="M4633 1103 c9 -2 23 -2 30 0 6 3 -1 5 -18 5 -16 0 -22 -2 -12 -5z"/>
<path d="M4790 1090 c8 -5 26 -10 39 -10 32 0 24 6 -19 14 -25 4 -31 3 -20 -4z"/>
<path d="M27 103 c-25 -4 -27 -8 -27 -54 0 -48 1 -49 30 -49 30 0 30 1 30 55
0 30 -1 54 -2 54 -2 -1 -15 -4 -31 -6z"/>
</g>
</svg>
